<svg width="54" height="54" viewBox="0 0 54 54" fill="none" xmlns="http://www.w3.org/2000/svg">
<path d="M19.104 26.2773C19.104 24.8585 19.5247 23.4716 20.3129 22.292C21.1012 21.1123 22.2214 20.1928 23.5323 19.6499C24.843 19.107 26.2853 18.9649 27.6769 19.2417C29.0683 19.5185 30.3466 20.2017 31.3498 21.2049C32.353 22.2081 33.0362 23.4863 33.313 24.8779C33.5897 26.2693 33.4477 27.7116 32.9047 29.0225C32.3618 30.3332 31.4424 31.4536 30.2627 32.2418C29.083 33.0299 27.6962 33.4507 26.2774 33.4507C24.3749 33.4507 22.5503 32.6949 21.2051 31.3497C19.8598 30.0043 19.104 28.1797 19.104 26.2773Z" fill="#D3312D"/>
<path d="M26.2585 52.5546C21.0613 52.5546 15.9809 51.0134 11.6596 48.1261C7.33836 45.2386 3.97029 41.1346 1.98143 36.3331C-0.00743245 31.5316 -0.527784 26.2481 0.48613 21.1508C1.50004 16.0536 4.00265 11.3714 7.67758 7.69647C11.3525 4.02153 16.0348 1.51882 21.1321 0.504899C26.2293 -0.509015 31.5128 0.0114522 36.3143 2.00031C41.1159 3.98918 45.2197 7.35713 48.1071 11.6784C50.9945 15.9997 52.5356 21.0801 52.5356 26.2772C52.5307 33.2448 49.7607 39.9257 44.8338 44.8526C39.9069 49.7794 33.226 52.5496 26.2585 52.5546ZM26.2585 9.49538C22.9393 9.49538 19.6947 10.4796 16.9349 12.3236C14.1751 14.1677 12.0241 16.7886 10.7539 19.8551C9.48371 22.9215 9.15142 26.2959 9.79901 29.5512C10.4465 32.8066 12.0448 35.7969 14.3918 38.1439C16.7388 40.4909 19.7291 42.0892 22.9844 42.7367C26.2398 43.3842 29.6141 43.052 32.6806 41.7818C35.7471 40.5116 38.3681 38.3605 40.2121 35.6007C42.0562 32.8411 43.0404 29.5964 43.0404 26.2772C43.0355 21.8279 41.2657 17.5624 38.1195 14.4162C34.9734 11.2701 30.7077 9.5004 26.2585 9.49538Z" fill="#D0BF00"/>
</svg>
